<svg version="1.1" xmlns="http://www.w3.org/2000/svg" style="display: block;" viewBox="0 0 2048 2048" width="1024" height="1024" preserveAspectRatio="none" xmlns:c2pa="http://c2pa.org/manifest"><metadata><c2pa:manifest>AAAMZ2p1bWIAAAAeanVtZGMycGEAEQAQgAAAqgA4m3EDYzJwYQAAAAxBanVtYgAAAEdqdW1kYzJtYQARABCAAACqADibcQN1cm46YzJwYTo1YmYxNmRlNC00MjU4LTRlZDQtODMzNC0yNmI3MDM5YzllMjkAAAAB4mp1bWIAAAApanVtZGMyYXMAEQAQgAAAqgA4m3EDYzJwYS5hc3NlcnRpb25zAAAAAO1qdW1iAAAAQWp1bWRjYm9yABEAEIAAAKoAOJtxE2MycGEuYWN0aW9ucy52MgAAAAAYYzJzaEQ5Gj42fTPGD34btOZ5ZRQAAACkY2JvcqFnYWN0aW9uc4GjZmFjdGlvbmxjMnBhLmNyZWF0ZWRxZGlnaXRhbFNvdXJjZVR5cGV4Rmh0dHA6Ly9jdi5pcHRjLm9yZy9uZXdzY29kZXMvZGlnaXRhbHNvdXJjZXR5cGUvdHJhaW5lZEFsZ29yaXRobWljTWVkaWFrZGVzY3JpcHRpb252Q3JlYXRlZCBieSBSZWNyYWZ0IEFJLgAAAMRqdW1iAAAAQGp1bWRjYm9yABEAEIAAAKoAOJtxE2MycGEuaGFzaC5kYXRhAAAAABhjMnNo3jxop1j8Vvg6q1dLutokzQAAAHxjYm9ypWpleGNsdXNpb25zgaJlc3RhcnQY22ZsZW5ndGgZEIxkbmFtZW5qdW1iZiBtYW5pZmVzdGNhbGdmc2hhMjU2ZGhhc2hYIMCUxHG+mLd1nPpUoJN+q/FJCOvGrbGGP3poLOBzOutwY3BhZEkAAAAAAAAAAAAAAAI0anVtYgAAACdqdW1kYzJjbAARABCAAACqADibcQNjMnBhLmNsYWltLnYyAAAAAgVjYm9ypmppbnN0YW5jZUlEeCx4bXA6aWlkOjllNTFjOTcyLThmYTItNGRmMy04YWJlLTdmODFjMDhjYTM2Y3RjbGFpbV9nZW5lcmF0b3JfaW5mb6NkbmFtZWpyZWNyYWZ0LmFpZ3ZlcnNpb254KDgxY2U4MmUyYzVjM2NiZmJlOGM2ZmJlMTc5ZDVmOGQ5MWM0MDljZTF3b3JnLmNvbnRlbnRhdXRoLmMycGFfcnNmMC45MC43aXNpZ25hdHVyZXhNc2VsZiNqdW1iZj0vYzJwYS91cm46YzJwYTo1YmYxNmRlNC00MjU4LTRlZDQtODMzNC0yNmI3MDM5YzllMjkvYzJwYS5zaWduYXR1cmVyY3JlYXRlZF9hc3NlcnRpb25zgqJjdXJseCpzZWxmI2p1bWJmPWMycGEuYXNzZXJ0aW9ucy9jMnBhLmFjdGlvbnMudjJkaGFzaFgguHmSIQWRsOAUcOG+fMgLD6PoE9wX39txxODlaO66GF6iY3VybHgpc2VsZiNqdW1iZj1jMnBhLmFzc2VydGlvbnMvYzJwYS5oYXNoLmRhdGFkaGFzaFgg3Cnck+PHTZpqedvOV0+TUzyX86tMPP8TCigJby+akGJoZGM6dGl0bGV4GlJlY3JhZnQgQUkgR2VuZXJhdGVkIEltYWdlY2FsZ2ZzaGEyNTYAAAfcanVtYgAAAChqdW1kYzJjcwARABCAAACqADibcQNjMnBhLnNpZ25hdHVyZQAAAAesY2JvctKEWQOwogEmGCGCWQHnMIIB4zCCAYmgAwIBAgIJALfeWmNDUW56MAoGCCqGSM49BAMCMEAxHzAdBgNVBAMMFlJlY3JhZnQgU3RhZ2luZyBEZXYgQ0ExEDAOBgNVBAoMB1JlY3JhZnQxCzAJBgNVBAYTAlVTMB4XDTI2MDYxMjE5NDM1MFoXDTI3MDYxMjE5NDM1MFowNzELMAkGA1UEBhMCVVMxEzARBgNVBAoTClJlY3JhZnQgQUkxEzARBgNVBAMTCnJlY3JhZnQuYWkwWTATBgcqhkjOPQIBBggqhkjOPQMBBwNCAARKaTVbACsg/DeG3LeOxYdID/VA6EFG73E6Oknb+KIiCFJygRUz4ueN2z/t2qYb6CIUvS8RvgOiiClfoqsYtw81o3UwczAMBgNVHRMBAf8EAjAAMA4GA1UdDwEB/wQEAwIGwDATBgNVHSUEDDAKBggrBgEFBQcDBDAdBgNVHQ4EFgQULzHpBen96SL1y4IPHa8MkMshXf0wHwYDVR0jBBgwFoAUAgsqOBrKqpdK//m/kxZo7ZR4ebcwCgYIKoZIzj0EAwIDSAAwRQIgU8hKW0aXvvk8SQgVFNkax69Ym9ae8GsT2RZTQw+B51ACIQC0D4BkEoRD4N0r2ZRkNy0HZaW3WICy/QZGN95ilF4yzFkBvTCCAbkwggFfoAMCAQICCQCc+Wg7T6ATbzAKBggqhkjOPQQDAjBAMR8wHQYDVQQDDBZSZWNyYWZ0IFN0YWdpbmcgRGV2IENBMRAwDgYDVQQKDAdSZWNyYWZ0MQswCQYDVQQGEwJVUzAeFw0yNjA2MTIxOTQwMTZaFw0yODA2MTExOTQwMTZaMEAxHzAdBgNVBAMMFlJlY3JhZnQgU3RhZ2luZyBEZXYgQ0ExEDAOBgNVBAoMB1JlY3JhZnQxCzAJBgNVBAYTAlVTMFkwEwYHKoZIzj0CAQYIKoZIzj0DAQcDQgAEQ9IQBlcVbKaKPYrQSfOhL/00s7xUDC7RinIuLO/I1k99y9yh6oWF9kPxaP+tx1v1PeOL3yrVquJ730H0ZGiDyqNCMEAwDwYDVR0TAQH/BAUwAwEB/zAOBgNVHQ8BAf8EBAMCAYYwHQYDVR0OBBYEFAILKjgayqqXSv/5v5MWaO2UeHm3MAoGCCqGSM49BAMCA0gAMEUCIFQwNImLlYDeQhjgF+ZiqTbgcuzSqmOJw3Q2lQ/hu83FAiEA9O8cLm/xfoVLqB4jtdbuHzi3WL+p2RN+DRGkwpYswVuhY3BhZFkDpAAAAAAAAAAAAAAAAAAAAAAAAAAAAAAAAAAAAAAAAAAAAAAAAAAAAAAAAAAAAAAAAAAAAAAAAAAAAAAAAAAAAAAAAAAAAAAAAAAAAAAAAAAAAAAAAAAAAAAAAAAAAAAAAAAAAAAAAAAAAAAAAAAAAAAAAAAAAAAAAAAAAAAAAAAAAAAAAAAAAAAAAAAAAAAAAAAAAAAAAAAAAAAAAAAAAAAAAAAAAAAAAAAAAAAAAAAAAAAAAAAAAAAAAAAAAAAAAAAAAAAAAAAAAAAAAAAAAAAAAAAAAAAAAAAAAAAAAAAAAAAAAAAAAAAAAAAAAAAAAAAAAAAAAAAAAAAAAAAAAAAAAAAAAAAAAAAAAAAAAAAAAAAAAAAAAAAAAAAAAAAAAAAAAAAAAAAAAAAAAAAAAAAAAAAAAAAAAAAAAAAAAAAAAAAAAAAAAAAAAAAAAAAAAAAAAAAAAAAAAAAAAAAAAAAAAAAAAAAAAAAAAAAAAAAAAAAAAAAAAAAAAAAAAAAAAAAAAAAAAAAAAAAAAAAAAAAAAAAAAAAAAAAAAAAAAAAAAAAAAAAAAAAAAAAAAAAAAAAAAAAAAAAAAAAAAAAAAAAAAAAAAAAAAAAAAAAAAAAAAAAAAAAAAAAAAAAAAAAAAAAAAAAAAAAAAAAAAAAAAAAAAAAAAAAAAAAAAAAAAAAAAAAAAAAAAAAAAAAAAAAAAAAAAAAAAAAAAAAAAAAAAAAAAAAAAAAAAAAAAAAAAAAAAAAAAAAAAAAAAAAAAAAAAAAAAAAAAAAAAAAAAAAAAAAAAAAAAAAAAAAAAAAAAAAAAAAAAAAAAAAAAAAAAAAAAAAAAAAAAAAAAAAAAAAAAAAAAAAAAAAAAAAAAAAAAAAAAAAAAAAAAAAAAAAAAAAAAAAAAAAAAAAAAAAAAAAAAAAAAAAAAAAAAAAAAAAAAAAAAAAAAAAAAAAAAAAAAAAAAAAAAAAAAAAAAAAAAAAAAAAAAAAAAAAAAAAAAAAAAAAAAAAAAAAAAAAAAAAAAAAAAAAAAAAAAAAAAAAAAAAAAAAAAAAAAAAAAAAAAAAAAAAAAAAAAAAAAAAAAAAAAAAAAAAAAAAAAAAAAAAAAAAAAAAAAAAAAAAAAAAAAAAAAAAAAAAAAAAAAAAAAAAAAAAAAAAAAAAAAAAAAAAAAAAAAAAAAAAAAAAAAAAAAAAAAAAAAAAAAAAAAAAAAAAAAAAAAAAAAAAAAAAAAAAAAAAAAAAAAAAA9lhAv9LcqtlL3THjxILJ8Qq6ftL+xWuS2VSosn/DxA2kv6qm3POyQZiP8oaHf9ju2w7SlmA28YWth28UerD/RZhfTA==</c2pa:manifest></metadata>
<path transform="translate(0,0)" fill="rgb(7,8,10)" d="M 0 0 L 2048 0 L 2048 2048 L 0 2048 L 0 0 z"/>
<path transform="translate(0,0)" fill="rgb(238,240,244)" d="M 1339.65 774.05 C 1369.72 773.962 1399.79 774.125 1429.85 774.54 C 1453.9 814.283 1476.47 854.831 1499.97 894.799 L 1499.61 774.254 C 1527.84 773.682 1557.74 774.156 1586.11 774.129 C 1586.25 801.2 1588.25 1027.12 1585.46 1032.59 C 1581.92 1034.65 1581.97 1033.91 1577.19 1033.95 L 1507.39 1034 C 1481.39 990.806 1452.21 946.086 1425.37 902.958 C 1424.09 944.28 1425.25 991.746 1425.33 1033.61 C 1397.97 1034.54 1367 1033.92 1339.37 1034 L 1339.65 774.05 z"/>
<path transform="translate(0,0)" fill="rgb(238,240,244)" d="M 849.924 774.5 C 865.903 774.296 881.885 774.393 897.861 774.792 C 905.341 789.862 916.256 816.069 922.18 831.968 L 948.016 774.562 C 979.682 774.177 1014.63 774.118 1046.19 774.831 C 1036.43 794.639 1022.15 816.773 1010.51 835.976 L 970.557 902.827 C 974.463 908.75 978.182 914.948 981.874 921.02 C 1004.53 958.265 1027.88 995.053 1049.12 1033.12 L 994.5 1033.13 L 951.702 1033.12 C 942.977 1014.4 932.62 991.804 922.657 973.913 C 913.639 993.836 904.355 1013.64 894.805 1033.31 L 797.604 1033.03 C 806.19 1016.87 819.279 996.528 828.993 980.361 L 874.751 902.647 C 868.58 891.424 859.478 878.449 852.797 867.046 C 834.78 836.296 815.309 805.63 797.646 774.752 C 814.687 774.313 832.799 774.557 849.924 774.5 z"/>
<path transform="translate(0,0)" fill="rgb(238,240,244)" d="M 558.798 771.428 C 595.061 769.315 639.92 780.057 659.073 814.064 C 667.318 828.703 669.196 842.871 670.252 859.297 C 639.565 859.529 608.876 859.436 578.191 859.017 C 577.911 853.996 577.777 848.173 575.272 843.628 C 569.624 833.641 557.871 838.342 558.758 849.102 C 559.598 857.865 567.549 862.964 574.803 866.2 C 616.5 884.957 667.322 893.008 672.242 947.641 C 677.71 1008.35 634.001 1031.82 579.582 1036.81 C 540.9 1037.77 495.436 1028.87 475.669 991.536 C 467.937 976.933 466.879 964.825 466.187 948.642 C 494.494 947.532 529.788 948.633 558.837 948.668 C 558.755 954.856 558.123 961.32 562.39 966.436 C 565.418 970.953 574.308 971.852 577.604 967.137 C 591.015 947.956 559.986 939.64 549.532 935.844 C 509.821 921.427 470.911 908.488 467.138 860.18 C 462.373 799.163 503.679 775.502 558.798 771.428 z"/>
<path transform="translate(0,0)" fill="rgb(238,240,244)" d="M 994.985 1072.93 L 1052.31 1072.65 C 1092.89 1072.48 1129.03 1071.26 1160.48 1101.32 C 1200.91 1139.95 1197.45 1208.96 1159.85 1247.74 C 1127.83 1277.53 1092.84 1277.1 1052.55 1277.12 L 994.914 1277.08 L 994.985 1072.93 z"/>
<path transform="translate(0,0)" fill="rgb(7,8,10)" d="M 1065.46 1133.33 C 1073.34 1133.19 1081.2 1132.72 1088.99 1134.14 C 1113.96 1138.7 1121.01 1163.37 1117.28 1185.51 C 1115.77 1194.48 1113.21 1199.05 1107.23 1205.71 C 1093.63 1217.4 1082.76 1216.05 1065.39 1215.66 C 1065.51 1188.45 1064.93 1160.39 1065.46 1133.33 z"/>
<path transform="translate(0,0)" fill="rgb(238,240,244)" d="M 585.067 1072.83 C 608.421 1072.7 631.777 1072.72 655.131 1072.9 L 655.116 1146.9 C 671.692 1146.68 688.475 1146.78 705.069 1146.75 L 705.18 1072.95 C 728.44 1072.6 752.75 1073 776.09 1073.04 L 776.085 1207.31 C 776.096 1227.72 777.221 1257.7 775.785 1277.04 L 704.989 1277.19 L 705.079 1201.18 L 655.138 1201.37 L 655.045 1277.13 L 585.008 1277.21 L 585.067 1072.83 z"/>
<path transform="translate(0,0)" fill="rgb(238,240,244)" d="M 1353.62 1072.96 C 1381.68 1072.7 1409.75 1072.58 1437.81 1072.62 C 1447.37 1103.36 1458.07 1132.97 1468.37 1163.31 L 1505.87 1276.93 L 1435.81 1276.85 L 1429.6 1256.25 C 1429.08 1253.43 1429.08 1251.66 1427.16 1249.57 C 1418.08 1248.26 1376.71 1249.06 1365.07 1249.06 C 1362.31 1258.35 1359.71 1267.68 1357.26 1277.05 L 1286.51 1276.95 C 1297.36 1242.28 1309.15 1208.73 1320.6 1174.28 L 1353.62 1072.96 z"/>
<path transform="translate(0,0)" fill="rgb(7,8,10)" d="M 1395.64 1145.77 C 1397.44 1147.56 1398.01 1151.56 1398.67 1154.01 C 1403.1 1169.92 1407.79 1185.76 1412.73 1201.52 C 1407.75 1201.72 1403.2 1201.76 1398.25 1201.76 L 1378.69 1201.8 C 1383.99 1185.91 1391.74 1161.67 1395.64 1145.77 z"/>
<path transform="translate(0,0)" fill="rgb(238,240,244)" d="M 794.995 1072.9 C 839.368 1071.76 888.85 1072.75 933.475 1072.91 L 933.313 1126.18 L 863.873 1126.13 L 863.827 1148.66 C 884.147 1148.49 904.469 1148.43 924.79 1148.49 L 924.504 1198.89 L 864.026 1199 L 864.015 1218.25 C 863.998 1220.68 864.106 1221.05 864.439 1223.47 C 867.371 1224.82 927.695 1224.12 935.262 1224.11 L 935.122 1277.05 L 795.055 1277.12 L 794.995 1072.9 z"/>
<path transform="translate(0,0)" fill="rgb(238,240,244)" d="M 693.691 774.813 C 721.175 773.747 755.691 774.805 783.727 774.863 C 782.971 860.892 784.738 947.35 783.72 1033.51 C 755.501 1034.61 722.31 1033.9 693.697 1034.02 L 693.691 774.813 z"/>
<path transform="translate(0,0)" fill="rgb(238,240,244)" d="M 448.198 1072.51 C 489.48 1072.39 530.762 1072.52 572.042 1072.91 C 571.791 1090.15 571.881 1107.64 571.821 1124.91 L 522.112 1124.96 L 522.126 1274.25 L 521.652 1276.19 C 517.867 1277.98 460.871 1277.13 451.94 1277.1 L 452.129 1124.89 L 402.866 1124.89 L 402.933 1072.8 C 417.589 1072.35 433.449 1072.57 448.198 1072.51 z"/>
<path transform="translate(0,0)" fill="rgb(238,240,244)" d="M 1517.34 1072.9 C 1540.26 1072.59 1563.91 1072.91 1586.88 1072.95 L 1586.98 1223.26 L 1646.07 1223.44 L 1646.06 1277.01 L 1517.23 1277.19 L 1517.34 1072.9 z"/>
<path transform="translate(0,0)" fill="rgb(238,240,244)" d="M 1204.73 1072.93 L 1274.85 1072.96 L 1274.58 1276.78 C 1253.36 1277.66 1226.34 1276.92 1204.68 1276.94 L 1204.73 1072.93 z"/>









<g>
<rect x="1159.80" y="766.40" width="68.00" height="68.00" rx="21.76" fill="#9a9ca0"/>
<rect x="1249.43" y="818.15" width="68.00" height="68.00" rx="21.76" fill="#9a9ca0"/>
<rect x="1249.43" y="921.65" width="68.00" height="68.00" rx="21.76" fill="#9a9ca0"/>
<rect x="1159.80" y="973.40" width="68.00" height="68.00" rx="21.76" fill="#f2831c"/>
<rect x="1070.17" y="921.65" width="68.00" height="68.00" rx="21.76" fill="#9a9ca0"/>
<rect x="1070.17" y="818.15" width="68.00" height="68.00" rx="21.76" fill="#9a9ca0"/>
<circle cx="1193.80" cy="903.90" r="13.50" fill="#eef0f4"/>
</g>
</svg>